<svg width="403" height="124" viewBox="0 0 403 124" fill="none" xmlns="http://www.w3.org/2000/svg">
<path d="M378.875 96.875C373.792 96.875 369.083 95.5833 364.75 93C360.5 90.4167 357.083 86.9583 354.5 82.625C352 78.2917 350.75 73.5417 350.75 68.375C350.75 63.0417 351.875 58.25 354.125 54C356.458 49.75 359.667 46.375 363.75 43.875C367.833 41.375 372.542 40.125 377.875 40.125C383.125 40.125 387.583 41.375 391.25 43.875C395 46.2917 397.833 49.3333 399.75 53C401.75 56.5833 402.75 60.2083 402.75 63.875C402.75 65.7917 402.333 67.0417 401.5 67.625C400.75 68.2083 399.208 68.5 396.875 68.5H368.625C368.125 68.5 367.875 68.7917 367.875 69.375C367.875 72.375 368.417 75.2083 369.5 77.875C370.667 80.5417 372.333 82.7083 374.5 84.375C376.75 86.0417 379.458 86.875 382.625 86.875C385.458 86.875 388.083 86.4583 390.5 85.625C392.167 85.125 393.458 84.6667 394.375 84.25C395.292 83.8333 396.125 83.375 396.875 82.875C397.708 82.2917 398.667 81.5833 399.75 80.75C400.5 81.0833 400.875 81.875 400.875 83.125C400.875 84.2083 400.708 85.0417 400.375 85.625C399.875 86.9583 398.542 88.5 396.375 90.25C394.292 92 391.708 93.5417 388.625 94.875C385.625 96.2083 382.375 96.875 378.875 96.875ZM368.75 61.625H384.625C385.792 61.625 386.375 60.8333 386.375 59.25C386.375 56.0833 385.5 53.25 383.75 50.75C382.083 48.25 379.917 47 377.25 47C374.833 47 372.917 47.875 371.5 49.625C370.167 51.2917 369.208 53.1667 368.625 55.25C368.125 57.3333 367.875 59.0417 367.875 60.375C367.875 61.2083 368.167 61.625 368.75 61.625Z" fill="#1a1a1a"/>
<path d="M312 96.5C311.667 96.1667 311.5 95.375 311.5 94.125C311.5 92.875 311.667 92.25 312 92.25C312.667 92.25 313.542 92.0833 314.625 91.75C315.708 91.4167 316.75 91 317.75 90.5C318.75 90 319.292 89.5417 319.375 89.125C319.958 86.7917 320.25 83.625 320.25 79.625V61.375C320.25 56.7083 319.5 53.5833 318 52C317.333 51.1667 316.417 50.5833 315.25 50.25C314.167 49.9167 313.208 49.7083 312.375 49.625C311.542 49.4583 311.125 49.2917 311.125 49.125C311.125 46.7083 311.333 45.5 311.75 45.5C312.5 45.5 313.875 45.3333 315.875 45C317.875 44.6667 320.083 44.25 322.5 43.75C325 43.25 327.333 42.75 329.5 42.25C331.75 41.75 333.458 41.3333 334.625 41L336 40.625C336.417 40.625 336.833 40.9167 337.25 41.5C337.667 42 337.875 42.4167 337.875 42.75C337.458 46.4167 337.125 49.2917 336.875 51.375C336.625 53.4583 336.5 54.75 336.5 55.25V77.75C336.5 82.5 336.833 86.2917 337.5 89.125C337.667 89.4583 338.208 89.875 339.125 90.375C340.125 90.875 341.167 91.3333 342.25 91.75C343.333 92.0833 344.083 92.25 344.5 92.25C344.75 92.25 344.875 92.875 344.875 94.125C344.958 95.375 344.917 96.1667 344.75 96.5C344.083 96.4167 342.667 96.2917 340.5 96.125C338.417 96.0417 336.208 95.9167 333.875 95.75C331.542 95.5833 329.708 95.5 328.375 95.5C327.042 95.5 325.208 95.5833 322.875 95.75C320.542 95.9167 318.333 96.0417 316.25 96.125C314.167 96.2917 312.75 96.4167 312 96.5Z" fill="#1a1a1a"/>
<path d="M253.75 96.5C253.417 96.1667 253.25 95.2917 253.25 93.875C253.25 92.5417 253.417 91.875 253.75 91.875C254.417 91.875 255.375 91.7083 256.625 91.375C257.875 90.9583 259.042 90.5 260.125 90C261.208 89.5 261.792 89.0833 261.875 88.75C262.458 86.4167 262.75 83.25 262.75 79.25V62.125C262.75 57.4583 262 54.3333 260.5 52.75C259.833 51.9167 258.917 51.3333 257.75 51C256.667 50.6667 255.708 50.4583 254.875 50.375C254.042 50.2083 253.625 50.0417 253.625 49.875C253.625 46.9583 253.833 45.5 254.25 45.5C256.417 45.5 259.417 45.0417 263.25 44.125C267.167 43.125 271.292 42.1667 275.625 41.25L278.5 40.625C278.917 40.625 279.333 40.9167 279.75 41.5C280.167 42 280.375 42.4167 280.375 42.75C280.292 43.25 280.167 44.25 280 45.75C279.917 47.25 279.833 48.0833 279.75 48.25C283.917 42.8333 288.625 40.125 293.875 40.125C297.625 40.125 301.208 41.6667 304.625 44.75C304.625 49.0833 304.083 52.2917 303 54.375C302 56.4583 300.125 57.5 297.375 57.5C295.708 57.5 293.792 56.5417 291.625 54.625C289.458 52.7083 287.542 51.75 285.875 51.75C284.208 51.75 282.875 52.4167 281.875 53.75C280.875 55 280.125 56.625 279.625 58.625C279.208 60.625 279 62.7083 279 64.875V77.5C279 82.9167 279.292 86.6667 279.875 88.75C280.042 89.0833 280.625 89.5 281.625 90C282.625 90.5 283.708 90.9583 284.875 91.375C286.042 91.7083 286.833 91.875 287.25 91.875C287.417 91.875 287.542 92.2083 287.625 92.875C287.708 93.5417 287.75 94.25 287.75 95C287.75 95.75 287.667 96.25 287.5 96.5C286.833 96.4167 285.417 96.2917 283.25 96.125C281.083 96.0417 278.792 95.9167 276.375 95.75C274.042 95.5833 272.208 95.5 270.875 95.5C269.875 95.5 268.5 95.5417 266.75 95.625C265.083 95.7083 263.333 95.8333 261.5 96C259.667 96.0833 258.042 96.1667 256.625 96.25C255.208 96.4167 254.25 96.5 253.75 96.5Z" fill="#1a1a1a"/>
<path d="M232 96.875C227.417 96.875 223.458 95.4583 220.125 92.625C216.875 89.7083 215.25 85.0417 215.25 78.625V49.75H207.125C206.458 49.75 206.125 48.4583 206.125 45.875C206.125 45.2917 206.208 44.8333 206.375 44.5C208.708 43.3333 210.792 42.2083 212.625 41.125C214.542 39.9583 216.208 38.8333 217.625 37.75C221.292 34.8333 223.958 32.625 225.625 31.125C227.292 29.625 228.167 28.8333 228.25 28.75C228.917 28.75 229.625 28.9167 230.375 29.25C231.125 29.5 231.5 29.7917 231.5 30.125V42.375H245C245.667 42.375 246 42.7917 246 43.625C246 46.125 245.583 48.1667 244.75 49.75H231.5V79.375C231.5 85.7083 233.75 88.875 238.25 88.875C240.583 88.875 242.208 88.5833 243.125 88C244.125 87.3333 244.792 87 245.125 87C245.458 87 245.792 87.4167 246.125 88.25C246.542 89.0833 246.75 89.7083 246.75 90.125C246.75 90.7917 245.917 91.6667 244.25 92.75C242.667 93.8333 240.708 94.7917 238.375 95.625C236.125 96.4583 234 96.875 232 96.875Z" fill="#1a1a1a"/>
<path d="M131.625 96.5C131.292 96.1667 131.125 95.2917 131.125 93.875C131.125 92.5417 131.292 91.875 131.625 91.875C132.292 91.875 133.208 91.7083 134.375 91.375C135.625 90.9583 136.792 90.5 137.875 90C139.042 89.5 139.667 89.0833 139.75 88.75C140.333 86.4167 140.625 83.25 140.625 79.25V62.125C140.625 57.4583 139.875 54.3333 138.375 52.75C137.708 51.9167 136.792 51.3333 135.625 51C134.542 50.6667 133.583 50.4583 132.75 50.375C131.917 50.2083 131.5 50.0417 131.5 49.875C131.5 46.9583 131.708 45.5 132.125 45.5C134.292 45.5 137.375 45.0417 141.375 44.125C145.375 43.125 149.917 42.0833 155 41L155.625 40.875C155.708 40.7917 155.875 40.75 156.125 40.75L156.375 40.625C156.792 40.625 157.208 40.9167 157.625 41.5C158.125 42 158.333 42.4167 158.25 42.75L157.75 46.625C157.75 47.0417 157.792 47.2917 157.875 47.375C158.042 47.375 158.333 47.1667 158.75 46.75C163.333 42.4167 169.125 40.25 176.125 40.25C180.958 40.25 184.875 42.2917 187.875 46.375C190.958 50.4583 192.5 56.6667 192.5 65V77.375C192.5 82.875 192.792 86.6667 193.375 88.75C193.542 89.0833 194.167 89.5 195.25 90C196.333 90.5 197.458 90.9583 198.625 91.375C199.875 91.7083 200.75 91.875 201.25 91.875C201.417 91.875 201.542 92.2083 201.625 92.875C201.708 93.5417 201.75 94.25 201.75 95C201.75 95.75 201.667 96.25 201.5 96.5C201 96.5 200.042 96.4167 198.625 96.25C197.208 96.1667 195.542 96.0833 193.625 96C191.792 95.8333 190.042 95.7083 188.375 95.625C186.708 95.5417 185.375 95.5 184.375 95.5C183.042 95.5 181.167 95.5833 178.75 95.75C176.417 95.9167 174.167 96.0417 172 96.125C169.833 96.2917 168.417 96.4167 167.75 96.5C167.417 96.1667 167.25 95.2917 167.25 93.875C167.25 92.5417 167.417 91.875 167.75 91.875C168.417 91.875 169.292 91.7083 170.375 91.375C171.542 90.9583 172.625 90.5 173.625 90C174.708 89.5 175.292 89.0833 175.375 88.75C175.958 86.4167 176.25 83.25 176.25 79.25V68C176.25 61.8333 175.375 57.4583 173.625 54.875C171.958 52.2083 169.25 50.875 165.5 50.875C162.917 50.875 160.833 51.375 159.25 52.375C157.667 53.2917 156.875 54.625 156.875 56.375V77.375C156.875 82.875 157.167 86.6667 157.75 88.75C157.917 89.0833 158.5 89.5 159.5 90C160.5 90.5 161.583 90.9583 162.75 91.375C163.917 91.7083 164.708 91.875 165.125 91.875C165.292 91.875 165.417 92.2083 165.5 92.875C165.583 93.5417 165.625 94.25 165.625 95C165.625 95.75 165.542 96.25 165.375 96.5C164.708 96.4167 163.292 96.2917 161.125 96.125C158.958 96.0417 156.667 95.9167 154.25 95.75C151.917 95.5833 150.083 95.5 148.75 95.5C147.75 95.5 146.375 95.5417 144.625 95.625C142.958 95.7083 141.208 95.8333 139.375 96C137.542 96.0833 135.917 96.1667 134.5 96.25C133.083 96.4167 132.125 96.5 131.625 96.5Z" fill="#1a1a1a"/>
<path d="M86.375 96.875C81.7917 96.875 78.125 95.625 75.375 93.125C72.7083 90.5417 71.375 87.3333 71.375 83.5C71.375 80.25 72.375 77.4167 74.375 75C76.4583 72.5833 79.0417 70.6667 82.125 69.25C83.2917 68.75 84.375 68.3333 85.375 68C86.375 67.5833 87.2917 67.2083 88.125 66.875C91.2917 65.875 93.8333 65.1667 95.75 64.75C97.6667 64.25 99.0833 63.8333 100 63.5C100.75 63.25 101.125 62.625 101.125 61.625V57.125C101.125 50.2917 99.0417 46.875 94.875 46.875C90.0417 46.875 87.625 49.6667 87.625 55.25C87.625 57.0833 86.875 58.4583 85.375 59.375C83.875 60.2083 82.2083 60.625 80.375 60.625C76.5417 60.625 73.9167 59.375 72.5 56.875C72.5 54.7083 73.25 52.625 74.75 50.625C76.3333 48.625 78.375 46.8333 80.875 45.25C83.4583 43.5833 86.3333 42.2917 89.5 41.375C92.75 40.375 96 39.875 99.25 39.875C105.083 39.875 109.542 41.5 112.625 44.75C115.792 47.9167 117.375 53.7083 117.375 62.125V82.375C117.375 85.2083 118.375 86.625 120.375 86.625C121.875 86.625 123.292 86.0833 124.625 85C125.208 85.3333 125.5 85.9583 125.5 86.875C125.5 89.0417 125.208 90.5833 124.625 91.5C123.458 92.5833 121.542 93.75 118.875 95C116.292 96.1667 113.833 96.75 111.5 96.75C109.5 96.75 107.583 96.1667 105.75 95C103.917 93.75 102.708 92.3333 102.125 90.75C102.042 90.75 101.583 91.0417 100.75 91.625C99.9167 92.2083 99.2917 92.6667 98.875 93C97.2083 94.0833 95.2917 95 93.125 95.75C90.9583 96.5 88.7083 96.875 86.375 96.875ZM94.25 87.875C96.4167 87.875 98.0833 87.375 99.25 86.375C100.5 85.2917 101.125 84 101.125 82.5V69.875L94.625 72.125C92.875 72.7083 91.25 73.5833 89.75 74.75C88.3333 75.9167 87.625 77.4583 87.625 79.375C87.625 82.375 88.25 84.5417 89.5 85.875C90.8333 87.2083 92.4167 87.875 94.25 87.875Z" fill="#1a1a1a"/>
<path d="M0.5 123.25C0.166667 122.917 0 122.083 0 120.75C0 119.333 0.166667 118.625 0.5 118.625C1.16667 118.625 2.125 118.417 3.375 118C4.625 117.667 5.79167 117.25 6.875 116.75C7.95833 116.25 8.54167 115.833 8.625 115.5C9.20833 113.167 9.5 110 9.5 106V62.125C9.5 57.4583 8.75 54.3333 7.25 52.75C6.58333 51.9167 5.66667 51.3333 4.5 51C3.41667 50.6667 2.45833 50.4583 1.625 50.375C0.791667 50.2083 0.375 50.0417 0.375 49.875C0.375 46.9583 0.583333 45.5 1 45.5C3.58333 45.5 6.54167 45.2083 9.875 44.625C13.2083 43.9583 16.9583 43.0417 21.125 41.875C23.625 41.0417 25 40.625 25.25 40.625C25.75 40.625 26 41.1667 26 42.25C26 42.5 25.9583 42.8333 25.875 43.25C25.875 43.5833 25.8333 44 25.75 44.5C29.3333 41.6667 33.1667 40.25 37.25 40.25C42.5833 40.25 47.2917 41.5417 51.375 44.125C55.5417 46.625 58.7917 49.9583 61.125 54.125C63.5417 58.2917 64.75 62.7917 64.75 67.625C64.75 73.7917 63.375 79.0833 60.625 83.5C57.9583 87.8333 54.25 91.1667 49.5 93.5C44.8333 95.8333 39.5 97 33.5 97C31.5 97 29.8333 96.7917 28.5 96.375C27.1667 96.0417 26.4167 95.875 26.25 95.875C25.9167 95.875 25.75 96.5417 25.75 97.875V104.125C25.75 109.625 26.0417 113.417 26.625 115.5C26.7917 115.833 27.4167 116.25 28.5 116.75C29.5833 117.25 30.7083 117.667 31.875 118C33.125 118.417 34 118.625 34.5 118.625C34.6667 118.625 34.7917 118.958 34.875 119.625C34.9583 120.292 35 121 35 121.75C35 122.5 34.9167 123 34.75 123.25C34.25 123.25 33.2917 123.167 31.875 123C30.4583 122.917 28.7917 122.792 26.875 122.625C25.0417 122.542 23.2917 122.458 21.625 122.375C19.9583 122.292 18.625 122.25 17.625 122.25C16.625 122.25 15.25 122.292 13.5 122.375C11.8333 122.458 10.0833 122.542 8.25 122.625C6.41667 122.792 4.79167 122.917 3.375 123C1.95833 123.167 1 123.25 0.5 123.25ZM35.5 90.25C43 90.25 46.75 84.0833 46.75 71.75C46.75 55.5833 42.9583 47.5 35.375 47.5C32.4583 47.5 30.125 48.375 28.375 50.125C26.625 51.875 25.75 54.0833 25.75 56.75V80.375C25.75 83.5417 26.7917 86 28.875 87.75C30.9583 89.4167 33.1667 90.25 35.5 90.25Z" fill="#1a1a1a"/>
<path d="M325.469 30C323.093 30.0072 320.801 29.1212 319.048 27.5176C317.294 25.914 316.208 23.7101 316.003 21.3429C315.799 18.9757 316.492 16.6181 317.944 14.7378C319.397 12.8575 321.503 11.5917 323.845 11.1916C331.558 9.70317 333.588 8.99954 336.294 5.6438C337.647 8.35004 339 11.2999 339 16.4688C339 23.911 332.532 30 325.469 30Z" fill="#D4A574" stroke="#D4A574" stroke-width="2.70625" stroke-linecap="round" stroke-linejoin="round"/>
</svg>
